<svg xmlns="http://www.w3.org/2000/svg" version="1.1" xmlns:xlink="http://www.w3.org/1999/xlink" xmlns:svgjs="http://svgjs.com/svgjs" width="1440" height="560" preserveAspectRatio="none" viewBox="0 0 1440 560"><g mask="url(&quot;#SvgjsMask1008&quot;)" fill="none"><path d="M-105.08 355.7L-105.08 355.7" stroke="rgba(186, 104, 200, 0.47)" stroke-width="1.5"></path><path d="M-105.08 355.7L-82.63 500.81" stroke="rgba(186, 104, 200, 0.47)" stroke-width="1.5"></path><path d="M-105.08 355.7L95.9 365.05" stroke="rgba(186, 104, 200, 0.47)" stroke-width="1.5"></path><path d="M-105.08 355.7L91.38 520" stroke="rgba(186, 104, 200, 0.47)" stroke-width="1.5"></path><path d="M-105.08 355.7L228.03 385.14" stroke="rgba(186, 104, 200, 0.47)" stroke-width="1.5"></path><path d="M-105.08 355.7L220.86 516.31" stroke="rgba(186, 104, 200, 0.47)" stroke-width="1.5"></path><path d="M-105.08 355.7L221.95 678.95" stroke="rgba(186, 104, 200, 0.47)" stroke-width="1.5"></path><path d="M-82.63 500.81L-82.63 500.81" stroke="rgba(186, 104, 200, 0.47)" stroke-width="1.5"></path><path d="M-82.63 500.81L91.38 520" stroke="rgba(186, 104, 200, 0.47)" stroke-width="1.5"></path><path d="M95.9 365.05L95.9 365.05" stroke="rgba(186, 104, 200, 0.47)" stroke-width="1.5"></path><path d="M95.9 365.05L228.03 385.14" stroke="rgba(186, 104, 200, 0.47)" stroke-width="1.5"></path><path d="M95.9 365.05L91.38 520" stroke="rgba(186, 104, 200, 0.47)" stroke-width="1.5"></path><path d="M95.9 365.05L220.86 516.31" stroke="rgba(186, 104, 200, 0.47)" stroke-width="1.5"></path><path d="M95.9 365.05L-82.63 500.81" stroke="rgba(186, 104, 200, 0.47)" stroke-width="1.5"></path><path d="M95.9 365.05L356.37 354.45" stroke="rgba(186, 104, 200, 0.47)" stroke-width="1.5"></path><path d="M91.38 520L91.38 520" stroke="rgba(186, 104, 200, 0.47)" stroke-width="1.5"></path><path d="M91.38 520L220.86 516.31" stroke="rgba(186, 104, 200, 0.47)" stroke-width="1.5"></path><path d="M91.38 520L228.03 385.14" stroke="rgba(186, 104, 200, 0.47)" stroke-width="1.5"></path><path d="M228.03 385.14L228.03 385.14" stroke="rgba(186, 104, 200, 0.47)" stroke-width="1.5"></path><path d="M228.03 385.14L220.86 516.31" stroke="rgba(186, 104, 200, 0.47)" stroke-width="1.5"></path><path d="M228.03 385.14L356.37 354.45" stroke="rgba(186, 104, 200, 0.47)" stroke-width="1.5"></path><path d="M228.03 385.14L343.64 493.95" stroke="rgba(186, 104, 200, 0.47)" stroke-width="1.5"></path><path d="M228.03 385.14L221.95 678.95" stroke="rgba(186, 104, 200, 0.47)" stroke-width="1.5"></path><path d="M220.86 516.31L220.86 516.31" stroke="rgba(186, 104, 200, 0.47)" stroke-width="1.5"></path><path d="M220.86 516.31L343.64 493.95" stroke="rgba(186, 104, 200, 0.47)" stroke-width="1.5"></path><path d="M221.95 678.95L221.95 678.95" stroke="rgba(186, 104, 200, 0.47)" stroke-width="1.5"></path><path d="M221.95 678.95L342.46 702.91" stroke="rgba(186, 104, 200, 0.47)" stroke-width="1.5"></path><path d="M221.95 678.95L220.86 516.31" stroke="rgba(186, 104, 200, 0.47)" stroke-width="1.5"></path><path d="M221.95 678.95L91.38 520" stroke="rgba(186, 104, 200, 0.47)" stroke-width="1.5"></path><path d="M221.95 678.95L343.64 493.95" stroke="rgba(186, 104, 200, 0.47)" stroke-width="1.5"></path><path d="M356.37 354.45L356.37 354.45" stroke="rgba(186, 104, 200, 0.47)" stroke-width="1.5"></path><path d="M356.37 354.45L343.64 493.95" stroke="rgba(186, 104, 200, 0.47)" stroke-width="1.5"></path><path d="M356.37 354.45L537.43 399.48" stroke="rgba(186, 104, 200, 0.47)" stroke-width="1.5"></path><path d="M343.64 493.95L343.64 493.95" stroke="rgba(186, 104, 200, 0.47)" stroke-width="1.5"></path><path d="M342.46 702.91L342.46 702.91" stroke="rgba(186, 104, 200, 0.47)" stroke-width="1.5"></path><path d="M342.46 702.91L537.7 650.7" stroke="rgba(186, 104, 200, 0.47)" stroke-width="1.5"></path><path d="M342.46 702.91L343.64 493.95" stroke="rgba(186, 104, 200, 0.47)" stroke-width="1.5"></path><path d="M342.46 702.91L220.86 516.31" stroke="rgba(186, 104, 200, 0.47)" stroke-width="1.5"></path><path d="M342.46 702.91L529.17 494.4" stroke="rgba(186, 104, 200, 0.47)" stroke-width="1.5"></path><path d="M537.43 399.48L537.43 399.48" stroke="rgba(186, 104, 200, 0.47)" stroke-width="1.5"></path><path d="M537.43 399.48L529.17 494.4" stroke="rgba(186, 104, 200, 0.47)" stroke-width="1.5"></path><path d="M537.43 399.48L697.66 390.72" stroke="rgba(186, 104, 200, 0.47)" stroke-width="1.5"></path><path d="M537.43 399.48L668.09 555.89" stroke="rgba(186, 104, 200, 0.47)" stroke-width="1.5"></path><path d="M537.43 399.48L343.64 493.95" stroke="rgba(186, 104, 200, 0.47)" stroke-width="1.5"></path><path d="M529.17 494.4L529.17 494.4" stroke="rgba(186, 104, 200, 0.47)" stroke-width="1.5"></path><path d="M529.17 494.4L668.09 555.89" stroke="rgba(186, 104, 200, 0.47)" stroke-width="1.5"></path><path d="M537.7 650.7L537.7 650.7" stroke="rgba(186, 104, 200, 0.47)" stroke-width="1.5"></path><path d="M537.7 650.7L663.95 708.5" stroke="rgba(186, 104, 200, 0.47)" stroke-width="1.5"></path><path d="M537.7 650.7L529.17 494.4" stroke="rgba(186, 104, 200, 0.47)" stroke-width="1.5"></path><path d="M537.7 650.7L668.09 555.89" stroke="rgba(186, 104, 200, 0.47)" stroke-width="1.5"></path><path d="M537.7 650.7L343.64 493.95" stroke="rgba(186, 104, 200, 0.47)" stroke-width="1.5"></path><path d="M697.66 390.72L697.66 390.72" stroke="rgba(186, 104, 200, 0.47)" stroke-width="1.5"></path><path d="M697.66 390.72L668.09 555.89" stroke="rgba(186, 104, 200, 0.47)" stroke-width="1.5"></path><path d="M697.66 390.72L799.37 526.15" stroke="rgba(186, 104, 200, 0.47)" stroke-width="1.5"></path><path d="M697.66 390.72L529.17 494.4" stroke="rgba(186, 104, 200, 0.47)" stroke-width="1.5"></path><path d="M697.66 390.72L805.13 209.84" stroke="rgba(186, 104, 200, 0.47)" stroke-width="1.5"></path><path d="M668.09 555.89L668.09 555.89" stroke="rgba(186, 104, 200, 0.47)" stroke-width="1.5"></path><path d="M668.09 555.89L799.37 526.15" stroke="rgba(186, 104, 200, 0.47)" stroke-width="1.5"></path><path d="M663.95 708.5L663.95 708.5" stroke="rgba(186, 104, 200, 0.47)" stroke-width="1.5"></path><path d="M663.95 708.5L668.09 555.89" stroke="rgba(186, 104, 200, 0.47)" stroke-width="1.5"></path><path d="M663.95 708.5L839.26 710.79" stroke="rgba(186, 104, 200, 0.47)" stroke-width="1.5"></path><path d="M663.95 708.5L799.37 526.15" stroke="rgba(186, 104, 200, 0.47)" stroke-width="1.5"></path><path d="M663.95 708.5L529.17 494.4" stroke="rgba(186, 104, 200, 0.47)" stroke-width="1.5"></path><path d="M663.95 708.5L697.66 390.72" stroke="rgba(186, 104, 200, 0.47)" stroke-width="1.5"></path><path d="M861.05 111.98L861.05 111.98" stroke="rgba(186, 104, 200, 0.47)" stroke-width="1.5"></path><path d="M861.05 111.98L805.13 209.84" stroke="rgba(186, 104, 200, 0.47)" stroke-width="1.5"></path><path d="M861.05 111.98L970.66 191.25" stroke="rgba(186, 104, 200, 0.47)" stroke-width="1.5"></path><path d="M861.05 111.98L994.32 73.6" stroke="rgba(186, 104, 200, 0.47)" stroke-width="1.5"></path><path d="M861.05 111.98L1088.21 99.61" stroke="rgba(186, 104, 200, 0.47)" stroke-width="1.5"></path><path d="M861.05 111.98L1097.39 191.98" stroke="rgba(186, 104, 200, 0.47)" stroke-width="1.5"></path><path d="M861.05 111.98L1007.93 -92.23" stroke="rgba(186, 104, 200, 0.47)" stroke-width="1.5"></path><path d="M805.13 209.84L805.13 209.84" stroke="rgba(186, 104, 200, 0.47)" stroke-width="1.5"></path><path d="M805.13 209.84L970.66 191.25" stroke="rgba(186, 104, 200, 0.47)" stroke-width="1.5"></path><path d="M799.37 526.15L799.37 526.15" stroke="rgba(186, 104, 200, 0.47)" stroke-width="1.5"></path><path d="M799.37 526.15L948.78 523.73" stroke="rgba(186, 104, 200, 0.47)" stroke-width="1.5"></path><path d="M839.26 710.79L839.26 710.79" stroke="rgba(186, 104, 200, 0.47)" stroke-width="1.5"></path><path d="M839.26 710.79L799.37 526.15" stroke="rgba(186, 104, 200, 0.47)" stroke-width="1.5"></path><path d="M839.26 710.79L948.78 523.73" stroke="rgba(186, 104, 200, 0.47)" stroke-width="1.5"></path><path d="M839.26 710.79L668.09 555.89" stroke="rgba(186, 104, 200, 0.47)" stroke-width="1.5"></path><path d="M839.26 710.79L1112.08 656.67" stroke="rgba(186, 104, 200, 0.47)" stroke-width="1.5"></path><path d="M839.26 710.79L537.7 650.7" stroke="rgba(186, 104, 200, 0.47)" stroke-width="1.5"></path><path d="M1007.93 -92.23L1007.93 -92.23" stroke="rgba(186, 104, 200, 0.47)" stroke-width="1.5"></path><path d="M1007.93 -92.23L1132.26 -92.04" stroke="rgba(186, 104, 200, 0.47)" stroke-width="1.5"></path><path d="M1007.93 -92.23L994.32 73.6" stroke="rgba(186, 104, 200, 0.47)" stroke-width="1.5"></path><path d="M994.32 73.6L994.32 73.6" stroke="rgba(186, 104, 200, 0.47)" stroke-width="1.5"></path><path d="M994.32 73.6L1088.21 99.61" stroke="rgba(186, 104, 200, 0.47)" stroke-width="1.5"></path><path d="M994.32 73.6L970.66 191.25" stroke="rgba(186, 104, 200, 0.47)" stroke-width="1.5"></path><path d="M970.66 191.25L970.66 191.25" stroke="rgba(186, 104, 200, 0.47)" stroke-width="1.5"></path><path d="M970.66 191.25L1097.39 191.98" stroke="rgba(186, 104, 200, 0.47)" stroke-width="1.5"></path><path d="M970.66 191.25L1088.21 99.61" stroke="rgba(186, 104, 200, 0.47)" stroke-width="1.5"></path><path d="M970.66 191.25L1002.37 353.98" stroke="rgba(186, 104, 200, 0.47)" stroke-width="1.5"></path><path d="M1002.37 353.98L1002.37 353.98" stroke="rgba(186, 104, 200, 0.47)" stroke-width="1.5"></path><path d="M1002.37 353.98L1104.31 358.84" stroke="rgba(186, 104, 200, 0.47)" stroke-width="1.5"></path><path d="M1002.37 353.98L1116.85 489.11" stroke="rgba(186, 104, 200, 0.47)" stroke-width="1.5"></path><path d="M1002.37 353.98L948.78 523.73" stroke="rgba(186, 104, 200, 0.47)" stroke-width="1.5"></path><path d="M948.78 523.73L948.78 523.73" stroke="rgba(186, 104, 200, 0.47)" stroke-width="1.5"></path><path d="M948.78 523.73L1116.85 489.11" stroke="rgba(186, 104, 200, 0.47)" stroke-width="1.5"></path><path d="M948.78 523.73L1112.08 656.67" stroke="rgba(186, 104, 200, 0.47)" stroke-width="1.5"></path><path d="M1132.26 -92.04L1132.26 -92.04" stroke="rgba(186, 104, 200, 0.47)" stroke-width="1.5"></path><path d="M1132.26 -92.04L1250.46 -77.6" stroke="rgba(186, 104, 200, 0.47)" stroke-width="1.5"></path><path d="M1132.26 -92.04L1088.21 99.61" stroke="rgba(186, 104, 200, 0.47)" stroke-width="1.5"></path><path d="M1132.26 -92.04L994.32 73.6" stroke="rgba(186, 104, 200, 0.47)" stroke-width="1.5"></path><path d="M1132.26 -92.04L1289.13 78.64" stroke="rgba(186, 104, 200, 0.47)" stroke-width="1.5"></path><path d="M1132.26 -92.04L1097.39 191.98" stroke="rgba(186, 104, 200, 0.47)" stroke-width="1.5"></path><path d="M1088.21 99.61L1088.21 99.61" stroke="rgba(186, 104, 200, 0.47)" stroke-width="1.5"></path><path d="M1088.21 99.61L1097.39 191.98" stroke="rgba(186, 104, 200, 0.47)" stroke-width="1.5"></path><path d="M1088.21 99.61L1289.13 78.64" stroke="rgba(186, 104, 200, 0.47)" stroke-width="1.5"></path><path d="M1097.39 191.98L1097.39 191.98" stroke="rgba(186, 104, 200, 0.47)" stroke-width="1.5"></path><path d="M1097.39 191.98L994.32 73.6" stroke="rgba(186, 104, 200, 0.47)" stroke-width="1.5"></path><path d="M1097.39 191.98L1104.31 358.84" stroke="rgba(186, 104, 200, 0.47)" stroke-width="1.5"></path><path d="M1097.39 191.98L1277.15 219.58" stroke="rgba(186, 104, 200, 0.47)" stroke-width="1.5"></path><path d="M1104.31 358.84L1104.31 358.84" stroke="rgba(186, 104, 200, 0.47)" stroke-width="1.5"></path><path d="M1104.31 358.84L1116.85 489.11" stroke="rgba(186, 104, 200, 0.47)" stroke-width="1.5"></path><path d="M1104.31 358.84L1237.82 360.95" stroke="rgba(186, 104, 200, 0.47)" stroke-width="1.5"></path><path d="M1116.85 489.11L1116.85 489.11" stroke="rgba(186, 104, 200, 0.47)" stroke-width="1.5"></path><path d="M1112.08 656.67L1112.08 656.67" stroke="rgba(186, 104, 200, 0.47)" stroke-width="1.5"></path><path d="M1112.08 656.67L1253.33 651.68" stroke="rgba(186, 104, 200, 0.47)" stroke-width="1.5"></path><path d="M1112.08 656.67L1116.85 489.11" stroke="rgba(186, 104, 200, 0.47)" stroke-width="1.5"></path><path d="M1112.08 656.67L1270.42 542.67" stroke="rgba(186, 104, 200, 0.47)" stroke-width="1.5"></path><path d="M1250.46 -77.6L1250.46 -77.6" stroke="rgba(186, 104, 200, 0.47)" stroke-width="1.5"></path><path d="M1250.46 -77.6L1289.13 78.64" stroke="rgba(186, 104, 200, 0.47)" stroke-width="1.5"></path><path d="M1250.46 -77.6L1461.64 -67.8" stroke="rgba(186, 104, 200, 0.47)" stroke-width="1.5"></path><path d="M1250.46 -77.6L1088.21 99.61" stroke="rgba(186, 104, 200, 0.47)" stroke-width="1.5"></path><path d="M1289.13 78.64L1289.13 78.64" stroke="rgba(186, 104, 200, 0.47)" stroke-width="1.5"></path><path d="M1289.13 78.64L1277.15 219.58" stroke="rgba(186, 104, 200, 0.47)" stroke-width="1.5"></path><path d="M1289.13 78.64L1455.37 87.44" stroke="rgba(186, 104, 200, 0.47)" stroke-width="1.5"></path><path d="M1289.13 78.64L1406.89 239.1" stroke="rgba(186, 104, 200, 0.47)" stroke-width="1.5"></path><path d="M1277.15 219.58L1277.15 219.58" stroke="rgba(186, 104, 200, 0.47)" stroke-width="1.5"></path><path d="M1277.15 219.58L1406.89 239.1" stroke="rgba(186, 104, 200, 0.47)" stroke-width="1.5"></path><path d="M1277.15 219.58L1237.82 360.95" stroke="rgba(186, 104, 200, 0.47)" stroke-width="1.5"></path><path d="M1237.82 360.95L1237.82 360.95" stroke="rgba(186, 104, 200, 0.47)" stroke-width="1.5"></path><path d="M1237.82 360.95L1116.85 489.11" stroke="rgba(186, 104, 200, 0.47)" stroke-width="1.5"></path><path d="M1237.82 360.95L1416.95 391.16" stroke="rgba(186, 104, 200, 0.47)" stroke-width="1.5"></path><path d="M1237.82 360.95L1270.42 542.67" stroke="rgba(186, 104, 200, 0.47)" stroke-width="1.5"></path><path d="M1237.82 360.95L1406.89 239.1" stroke="rgba(186, 104, 200, 0.47)" stroke-width="1.5"></path><path d="M1270.42 542.67L1270.42 542.67" stroke="rgba(186, 104, 200, 0.47)" stroke-width="1.5"></path><path d="M1270.42 542.67L1253.33 651.68" stroke="rgba(186, 104, 200, 0.47)" stroke-width="1.5"></path><path d="M1270.42 542.67L1406.34 516.16" stroke="rgba(186, 104, 200, 0.47)" stroke-width="1.5"></path><path d="M1270.42 542.67L1116.85 489.11" stroke="rgba(186, 104, 200, 0.47)" stroke-width="1.5"></path><path d="M1253.33 651.68L1253.33 651.68" stroke="rgba(186, 104, 200, 0.47)" stroke-width="1.5"></path><path d="M1253.33 651.68L1444.24 673.33" stroke="rgba(186, 104, 200, 0.47)" stroke-width="1.5"></path><path d="M1461.64 -67.8L1461.64 -67.8" stroke="rgba(186, 104, 200, 0.47)" stroke-width="1.5"></path><path d="M1461.64 -67.8L1587.91 -55.65" stroke="rgba(186, 104, 200, 0.47)" stroke-width="1.5"></path><path d="M1461.64 -67.8L1455.37 87.44" stroke="rgba(186, 104, 200, 0.47)" stroke-width="1.5"></path><path d="M1455.37 87.44L1455.37 87.44" stroke="rgba(186, 104, 200, 0.47)" stroke-width="1.5"></path><path d="M1455.37 87.44L1607.58 44.44" stroke="rgba(186, 104, 200, 0.47)" stroke-width="1.5"></path><path d="M1455.37 87.44L1406.89 239.1" stroke="rgba(186, 104, 200, 0.47)" stroke-width="1.5"></path><path d="M1406.89 239.1L1406.89 239.1" stroke="rgba(186, 104, 200, 0.47)" stroke-width="1.5"></path><path d="M1406.89 239.1L1416.95 391.16" stroke="rgba(186, 104, 200, 0.47)" stroke-width="1.5"></path><path d="M1406.89 239.1L1602.86 204.59" stroke="rgba(186, 104, 200, 0.47)" stroke-width="1.5"></path><path d="M1416.95 391.16L1416.95 391.16" stroke="rgba(186, 104, 200, 0.47)" stroke-width="1.5"></path><path d="M1416.95 391.16L1406.34 516.16" stroke="rgba(186, 104, 200, 0.47)" stroke-width="1.5"></path><path d="M1406.34 516.16L1406.34 516.16" stroke="rgba(186, 104, 200, 0.47)" stroke-width="1.5"></path><path d="M1406.34 516.16L1444.24 673.33" stroke="rgba(186, 104, 200, 0.47)" stroke-width="1.5"></path><path d="M1406.34 516.16L1575.37 403.01" stroke="rgba(186, 104, 200, 0.47)" stroke-width="1.5"></path><path d="M1406.34 516.16L1608.25 541.88" stroke="rgba(186, 104, 200, 0.47)" stroke-width="1.5"></path><path d="M1444.24 673.33L1444.24 673.33" stroke="rgba(186, 104, 200, 0.47)" stroke-width="1.5"></path><path d="M1444.24 673.33L1605.51 660.11" stroke="rgba(186, 104, 200, 0.47)" stroke-width="1.5"></path><path d="M1444.24 673.33L1608.25 541.88" stroke="rgba(186, 104, 200, 0.47)" stroke-width="1.5"></path><path d="M1444.24 673.33L1270.42 542.67" stroke="rgba(186, 104, 200, 0.47)" stroke-width="1.5"></path><path d="M1587.91 -55.65L1587.91 -55.65" stroke="rgba(186, 104, 200, 0.47)" stroke-width="1.5"></path><path d="M1587.91 -55.65L1607.58 44.44" stroke="rgba(186, 104, 200, 0.47)" stroke-width="1.5"></path><path d="M1587.91 -55.65L1455.37 87.44" stroke="rgba(186, 104, 200, 0.47)" stroke-width="1.5"></path><path d="M1607.58 44.44L1607.58 44.44" stroke="rgba(186, 104, 200, 0.47)" stroke-width="1.5"></path><path d="M1607.58 44.44L1602.86 204.59" stroke="rgba(186, 104, 200, 0.47)" stroke-width="1.5"></path><path d="M1607.58 44.44L1461.64 -67.8" stroke="rgba(186, 104, 200, 0.47)" stroke-width="1.5"></path><path d="M1602.86 204.59L1602.86 204.59" stroke="rgba(186, 104, 200, 0.47)" stroke-width="1.5"></path><path d="M1602.86 204.59L1455.37 87.44" stroke="rgba(186, 104, 200, 0.47)" stroke-width="1.5"></path><path d="M1602.86 204.59L1575.37 403.01" stroke="rgba(186, 104, 200, 0.47)" stroke-width="1.5"></path><path d="M1575.37 403.01L1575.37 403.01" stroke="rgba(186, 104, 200, 0.47)" stroke-width="1.5"></path><path d="M1575.37 403.01L1608.25 541.88" stroke="rgba(186, 104, 200, 0.47)" stroke-width="1.5"></path><path d="M1575.37 403.01L1416.95 391.16" stroke="rgba(186, 104, 200, 0.47)" stroke-width="1.5"></path><path d="M1575.37 403.01L1406.89 239.1" stroke="rgba(186, 104, 200, 0.47)" stroke-width="1.5"></path><path d="M1575.37 403.01L1605.51 660.11" stroke="rgba(186, 104, 200, 0.47)" stroke-width="1.5"></path><path d="M1608.25 541.88L1608.25 541.88" stroke="rgba(186, 104, 200, 0.47)" stroke-width="1.5"></path><path d="M1608.25 541.88L1605.51 660.11" stroke="rgba(186, 104, 200, 0.47)" stroke-width="1.5"></path><path d="M1605.51 660.11L1605.51 660.11" stroke="rgba(186, 104, 200, 0.47)" stroke-width="1.5"></path><circle r="5" cx="-105.08" cy="355.7" fill="rgba(186, 104, 200, 0.47)"></circle><circle r="5" cx="-82.63" cy="500.81" fill="rgba(186, 104, 200, 0.47)"></circle><circle r="5" cx="95.9" cy="365.05" fill="rgba(186, 104, 200, 0.47)"></circle><circle r="5" cx="91.38" cy="520" fill="rgba(186, 104, 200, 0.47)"></circle><circle r="5" cx="228.03" cy="385.14" fill="rgba(186, 104, 200, 0.47)"></circle><circle r="5" cx="220.86" cy="516.31" fill="rgba(186, 104, 200, 0.47)"></circle><circle r="5" cx="221.95" cy="678.95" fill="rgba(186, 104, 200, 0.47)"></circle><circle r="5" cx="356.37" cy="354.45" fill="rgba(186, 104, 200, 0.47)"></circle><circle r="5" cx="343.64" cy="493.95" fill="rgba(186, 104, 200, 0.47)"></circle><circle r="5" cx="342.46" cy="702.91" fill="rgba(186, 104, 200, 0.47)"></circle><circle r="5" cx="537.43" cy="399.48" fill="rgba(186, 104, 200, 0.47)"></circle><circle r="5" cx="529.17" cy="494.4" fill="rgba(186, 104, 200, 0.47)"></circle><circle r="5" cx="537.7" cy="650.7" fill="rgba(186, 104, 200, 0.47)"></circle><circle r="5" cx="697.66" cy="390.72" fill="rgba(186, 104, 200, 0.47)"></circle><circle r="5" cx="668.09" cy="555.89" fill="rgba(186, 104, 200, 0.47)"></circle><circle r="5" cx="663.95" cy="708.5" fill="rgba(186, 104, 200, 0.47)"></circle><circle r="5" cx="861.05" cy="111.98" fill="rgba(186, 104, 200, 0.47)"></circle><circle r="5" cx="805.13" cy="209.84" fill="rgba(186, 104, 200, 0.47)"></circle><circle r="5" cx="799.37" cy="526.15" fill="rgba(186, 104, 200, 0.47)"></circle><circle r="5" cx="839.26" cy="710.79" fill="rgba(186, 104, 200, 0.47)"></circle><circle r="5" cx="1007.93" cy="-92.23" fill="rgba(186, 104, 200, 0.47)"></circle><circle r="5" cx="994.32" cy="73.6" fill="rgba(186, 104, 200, 0.47)"></circle><circle r="5" cx="970.66" cy="191.25" fill="rgba(186, 104, 200, 0.47)"></circle><circle r="5" cx="1002.37" cy="353.98" fill="rgba(186, 104, 200, 0.47)"></circle><circle r="5" cx="948.78" cy="523.73" fill="rgba(186, 104, 200, 0.47)"></circle><circle r="5" cx="1132.26" cy="-92.04" fill="rgba(186, 104, 200, 0.47)"></circle><circle r="5" cx="1088.21" cy="99.61" fill="rgba(186, 104, 200, 0.47)"></circle><circle r="5" cx="1097.39" cy="191.98" fill="rgba(186, 104, 200, 0.47)"></circle><circle r="5" cx="1104.31" cy="358.84" fill="rgba(186, 104, 200, 0.47)"></circle><circle r="5" cx="1116.85" cy="489.11" fill="rgba(186, 104, 200, 0.47)"></circle><circle r="5" cx="1112.08" cy="656.67" fill="rgba(186, 104, 200, 0.47)"></circle><circle r="5" cx="1250.46" cy="-77.6" fill="rgba(186, 104, 200, 0.47)"></circle><circle r="5" cx="1289.13" cy="78.64" fill="rgba(186, 104, 200, 0.47)"></circle><circle r="5" cx="1277.15" cy="219.58" fill="rgba(186, 104, 200, 0.47)"></circle><circle r="5" cx="1237.82" cy="360.95" fill="rgba(186, 104, 200, 0.47)"></circle><circle r="5" cx="1270.42" cy="542.67" fill="rgba(186, 104, 200, 0.47)"></circle><circle r="5" cx="1253.33" cy="651.68" fill="rgba(186, 104, 200, 0.47)"></circle><circle r="5" cx="1461.64" cy="-67.8" fill="rgba(186, 104, 200, 0.47)"></circle><circle r="5" cx="1455.37" cy="87.44" fill="rgba(186, 104, 200, 0.47)"></circle><circle r="5" cx="1406.89" cy="239.1" fill="rgba(186, 104, 200, 0.47)"></circle><circle r="5" cx="1416.95" cy="391.16" fill="rgba(186, 104, 200, 0.47)"></circle><circle r="5" cx="1406.34" cy="516.16" fill="rgba(186, 104, 200, 0.47)"></circle><circle r="5" cx="1444.24" cy="673.33" fill="rgba(186, 104, 200, 0.47)"></circle><circle r="5" cx="1587.91" cy="-55.65" fill="rgba(186, 104, 200, 0.47)"></circle><circle r="5" cx="1607.58" cy="44.44" fill="rgba(186, 104, 200, 0.47)"></circle><circle r="5" cx="1602.86" cy="204.59" fill="rgba(186, 104, 200, 0.47)"></circle><circle r="5" cx="1575.37" cy="403.01" fill="rgba(186, 104, 200, 0.47)"></circle><circle r="5" cx="1608.25" cy="541.88" fill="rgba(186, 104, 200, 0.47)"></circle><circle r="5" cx="1605.51" cy="660.11" fill="rgba(186, 104, 200, 0.47)"></circle><path d="M-73.98 641.02L-73.98 641.02" stroke="hsl(291.29999999999995, 46.6%, 77.5%)" stroke-width="1.5"></path><path d="M-73.98 641.02L-104.75 523.5" stroke="hsl(291.29999999999995, 46.6%, 77.5%)" stroke-width="1.5"></path><path d="M-73.98 641.02L92 680.48" stroke="hsl(291.29999999999995, 46.6%, 77.5%)" stroke-width="1.5"></path><path d="M-73.98 641.02L95.09 521.12" stroke="hsl(291.29999999999995, 46.6%, 77.5%)" stroke-width="1.5"></path><path d="M-73.98 641.02L214.63 683.28" stroke="hsl(291.29999999999995, 46.6%, 77.5%)" stroke-width="1.5"></path><path d="M-73.98 641.02L202.74 505.08" stroke="hsl(291.29999999999995, 46.6%, 77.5%)" stroke-width="1.5"></path><path d="M95.09 521.12L95.09 521.12" stroke="hsl(291.29999999999995, 46.6%, 77.5%)" stroke-width="1.5"></path><path d="M95.09 521.12L202.74 505.08" stroke="hsl(291.29999999999995, 46.6%, 77.5%)" stroke-width="1.5"></path><path d="M95.09 521.12L92 680.48" stroke="hsl(291.29999999999995, 46.6%, 77.5%)" stroke-width="1.5"></path><path d="M95.09 521.12L-104.75 523.5" stroke="hsl(291.29999999999995, 46.6%, 77.5%)" stroke-width="1.5"></path><path d="M95.09 521.12L214.63 683.28" stroke="hsl(291.29999999999995, 46.6%, 77.5%)" stroke-width="1.5"></path><path d="M557.89 511.32L557.89 511.32" stroke="hsl(291.29999999999995, 46.6%, 77.5%)" stroke-width="1.5"></path><path d="M557.89 511.32L535.55 402.31" stroke="hsl(291.29999999999995, 46.6%, 77.5%)" stroke-width="1.5"></path><path d="M557.89 511.32L680.12 495.54" stroke="hsl(291.29999999999995, 46.6%, 77.5%)" stroke-width="1.5"></path><path d="M805.74 664.73L805.74 664.73" stroke="hsl(291.29999999999995, 46.6%, 77.5%)" stroke-width="1.5"></path><path d="M805.74 664.73L696.55 701.39" stroke="hsl(291.29999999999995, 46.6%, 77.5%)" stroke-width="1.5"></path><path d="M805.74 664.73L819.99 534.29" stroke="hsl(291.29999999999995, 46.6%, 77.5%)" stroke-width="1.5"></path><path d="M805.74 664.73L990.1 640.5" stroke="hsl(291.29999999999995, 46.6%, 77.5%)" stroke-width="1.5"></path><path d="M805.74 664.73L680.12 495.54" stroke="hsl(291.29999999999995, 46.6%, 77.5%)" stroke-width="1.5"></path><path d="M986.97 373.42L986.97 373.42" stroke="hsl(291.29999999999995, 46.6%, 77.5%)" stroke-width="1.5"></path><path d="M986.97 373.42L1108.06 356.25" stroke="hsl(291.29999999999995, 46.6%, 77.5%)" stroke-width="1.5"></path><path d="M986.97 373.42L985.67 242.6" stroke="hsl(291.29999999999995, 46.6%, 77.5%)" stroke-width="1.5"></path><path d="M986.97 373.42L837.32 365.35" stroke="hsl(291.29999999999995, 46.6%, 77.5%)" stroke-width="1.5"></path><path d="M1304.71 218.17L1304.71 218.17" stroke="hsl(291.29999999999995, 46.6%, 77.5%)" stroke-width="1.5"></path><path d="M1304.71 218.17L1433.45 220.94" stroke="hsl(291.29999999999995, 46.6%, 77.5%)" stroke-width="1.5"></path><path d="M1304.71 218.17L1304.83 376.13" stroke="hsl(291.29999999999995, 46.6%, 77.5%)" stroke-width="1.5"></path><path d="M1304.71 218.17L1418.51 74.6" stroke="hsl(291.29999999999995, 46.6%, 77.5%)" stroke-width="1.5"></path><path d="M1304.71 218.17L1151 92.95" stroke="hsl(291.29999999999995, 46.6%, 77.5%)" stroke-width="1.5"></path><path d="M1304.71 218.17L1095.93 207.27" stroke="hsl(291.29999999999995, 46.6%, 77.5%)" stroke-width="1.5"></path><path d="M1304.71 218.17L1450.75 367.8" stroke="hsl(291.29999999999995, 46.6%, 77.5%)" stroke-width="1.5"></path><path d="M1304.83 376.13L1304.83 376.13" stroke="hsl(291.29999999999995, 46.6%, 77.5%)" stroke-width="1.5"></path><path d="M1304.83 376.13L1450.75 367.8" stroke="hsl(291.29999999999995, 46.6%, 77.5%)" stroke-width="1.5"></path><path d="M1304.83 376.13L1108.06 356.25" stroke="hsl(291.29999999999995, 46.6%, 77.5%)" stroke-width="1.5"></path><path d="M1304.83 376.13L1433.45 220.94" stroke="hsl(291.29999999999995, 46.6%, 77.5%)" stroke-width="1.5"></path><path d="M1304.83 376.13L1429.17 542.48" stroke="hsl(291.29999999999995, 46.6%, 77.5%)" stroke-width="1.5"></path><path d="M1304.83 376.13L1113.42 524.36" stroke="hsl(291.29999999999995, 46.6%, 77.5%)" stroke-width="1.5"></path><path d="M1404.15 -109.62L1404.15 -109.62" stroke="hsl(291.29999999999995, 46.6%, 77.5%)" stroke-width="1.5"></path><path d="M1404.15 -109.62L1298.09 -44.76" stroke="hsl(291.29999999999995, 46.6%, 77.5%)" stroke-width="1.5"></path><path d="M1404.15 -109.62L1565.13 -51.91" stroke="hsl(291.29999999999995, 46.6%, 77.5%)" stroke-width="1.5"></path><path d="M1404.15 -109.62L1418.51 74.6" stroke="hsl(291.29999999999995, 46.6%, 77.5%)" stroke-width="1.5"></path><path d="M1404.15 -109.62L1559.88 37.55" stroke="hsl(291.29999999999995, 46.6%, 77.5%)" stroke-width="1.5"></path><path d="M1404.15 -109.62L1155.25 -110.09" stroke="hsl(291.29999999999995, 46.6%, 77.5%)" stroke-width="1.5"></path><path d="M-104.75 523.5L-104.75 523.5" stroke="hsl(291.29999999999995, 46.6%, 77.5%)" stroke-width="1.5"></path><path d="M-104.75 523.5L92 680.48" stroke="hsl(291.29999999999995, 46.6%, 77.5%)" stroke-width="1.5"></path><path d="M-104.75 523.5L202.74 505.08" stroke="hsl(291.29999999999995, 46.6%, 77.5%)" stroke-width="1.5"></path><path d="M-104.75 523.5L214.63 683.28" stroke="hsl(291.29999999999995, 46.6%, 77.5%)" stroke-width="1.5"></path><path d="M92 680.48L92 680.48" stroke="hsl(291.29999999999995, 46.6%, 77.5%)" stroke-width="1.5"></path><path d="M92 680.48L214.63 683.28" stroke="hsl(291.29999999999995, 46.6%, 77.5%)" stroke-width="1.5"></path><path d="M92 680.48L202.74 505.08" stroke="hsl(291.29999999999995, 46.6%, 77.5%)" stroke-width="1.5"></path><path d="M92 680.48L378.14 554.37" stroke="hsl(291.29999999999995, 46.6%, 77.5%)" stroke-width="1.5"></path><path d="M202.74 505.08L202.74 505.08" stroke="hsl(291.29999999999995, 46.6%, 77.5%)" stroke-width="1.5"></path><path d="M202.74 505.08L214.63 683.28" stroke="hsl(291.29999999999995, 46.6%, 77.5%)" stroke-width="1.5"></path><path d="M202.74 505.08L378.14 554.37" stroke="hsl(291.29999999999995, 46.6%, 77.5%)" stroke-width="1.5"></path><path d="M202.74 505.08L410.02 650.91" stroke="hsl(291.29999999999995, 46.6%, 77.5%)" stroke-width="1.5"></path><path d="M214.63 683.28L214.63 683.28" stroke="hsl(291.29999999999995, 46.6%, 77.5%)" stroke-width="1.5"></path><path d="M378.14 554.37L378.14 554.37" stroke="hsl(291.29999999999995, 46.6%, 77.5%)" stroke-width="1.5"></path><path d="M378.14 554.37L410.02 650.91" stroke="hsl(291.29999999999995, 46.6%, 77.5%)" stroke-width="1.5"></path><path d="M378.14 554.37L557.89 511.32" stroke="hsl(291.29999999999995, 46.6%, 77.5%)" stroke-width="1.5"></path><path d="M410.02 650.91L410.02 650.91" stroke="hsl(291.29999999999995, 46.6%, 77.5%)" stroke-width="1.5"></path><path d="M410.02 650.91L546.28 683.07" stroke="hsl(291.29999999999995, 46.6%, 77.5%)" stroke-width="1.5"></path><path d="M410.02 650.91L214.63 683.28" stroke="hsl(291.29999999999995, 46.6%, 77.5%)" stroke-width="1.5"></path><path d="M410.02 650.91L557.89 511.32" stroke="hsl(291.29999999999995, 46.6%, 77.5%)" stroke-width="1.5"></path><path d="M535.55 402.31L535.55 402.31" stroke="hsl(291.29999999999995, 46.6%, 77.5%)" stroke-width="1.5"></path><path d="M535.55 402.31L688.75 393.58" stroke="hsl(291.29999999999995, 46.6%, 77.5%)" stroke-width="1.5"></path><path d="M535.55 402.31L680.12 495.54" stroke="hsl(291.29999999999995, 46.6%, 77.5%)" stroke-width="1.5"></path><path d="M535.55 402.31L378.14 554.37" stroke="hsl(291.29999999999995, 46.6%, 77.5%)" stroke-width="1.5"></path><path d="M546.28 683.07L546.28 683.07" stroke="hsl(291.29999999999995, 46.6%, 77.5%)" stroke-width="1.5"></path><path d="M546.28 683.07L696.55 701.39" stroke="hsl(291.29999999999995, 46.6%, 77.5%)" stroke-width="1.5"></path><path d="M546.28 683.07L557.89 511.32" stroke="hsl(291.29999999999995, 46.6%, 77.5%)" stroke-width="1.5"></path><path d="M546.28 683.07L378.14 554.37" stroke="hsl(291.29999999999995, 46.6%, 77.5%)" stroke-width="1.5"></path><path d="M688.75 393.58L688.75 393.58" stroke="hsl(291.29999999999995, 46.6%, 77.5%)" stroke-width="1.5"></path><path d="M688.75 393.58L680.12 495.54" stroke="hsl(291.29999999999995, 46.6%, 77.5%)" stroke-width="1.5"></path><path d="M688.75 393.58L837.32 365.35" stroke="hsl(291.29999999999995, 46.6%, 77.5%)" stroke-width="1.5"></path><path d="M688.75 393.58L557.89 511.32" stroke="hsl(291.29999999999995, 46.6%, 77.5%)" stroke-width="1.5"></path><path d="M688.75 393.58L819.99 534.29" stroke="hsl(291.29999999999995, 46.6%, 77.5%)" stroke-width="1.5"></path><path d="M680.12 495.54L680.12 495.54" stroke="hsl(291.29999999999995, 46.6%, 77.5%)" stroke-width="1.5"></path><path d="M680.12 495.54L819.99 534.29" stroke="hsl(291.29999999999995, 46.6%, 77.5%)" stroke-width="1.5"></path><path d="M680.12 495.54L837.32 365.35" stroke="hsl(291.29999999999995, 46.6%, 77.5%)" stroke-width="1.5"></path><path d="M696.55 701.39L696.55 701.39" stroke="hsl(291.29999999999995, 46.6%, 77.5%)" stroke-width="1.5"></path><path d="M696.55 701.39L680.12 495.54" stroke="hsl(291.29999999999995, 46.6%, 77.5%)" stroke-width="1.5"></path><path d="M696.55 701.39L819.99 534.29" stroke="hsl(291.29999999999995, 46.6%, 77.5%)" stroke-width="1.5"></path><path d="M837.32 365.35L837.32 365.35" stroke="hsl(291.29999999999995, 46.6%, 77.5%)" stroke-width="1.5"></path><path d="M837.32 365.35L819.99 534.29" stroke="hsl(291.29999999999995, 46.6%, 77.5%)" stroke-width="1.5"></path><path d="M837.32 365.35L985.67 242.6" stroke="hsl(291.29999999999995, 46.6%, 77.5%)" stroke-width="1.5"></path><path d="M837.32 365.35L989.3 561.07" stroke="hsl(291.29999999999995, 46.6%, 77.5%)" stroke-width="1.5"></path><path d="M819.99 534.29L819.99 534.29" stroke="hsl(291.29999999999995, 46.6%, 77.5%)" stroke-width="1.5"></path><path d="M819.99 534.29L989.3 561.07" stroke="hsl(291.29999999999995, 46.6%, 77.5%)" stroke-width="1.5"></path><path d="M819.99 534.29L990.1 640.5" stroke="hsl(291.29999999999995, 46.6%, 77.5%)" stroke-width="1.5"></path><path d="M985.67 242.6L985.67 242.6" stroke="hsl(291.29999999999995, 46.6%, 77.5%)" stroke-width="1.5"></path><path d="M985.67 242.6L1095.93 207.27" stroke="hsl(291.29999999999995, 46.6%, 77.5%)" stroke-width="1.5"></path><path d="M985.67 242.6L1108.06 356.25" stroke="hsl(291.29999999999995, 46.6%, 77.5%)" stroke-width="1.5"></path><path d="M985.67 242.6L1151 92.95" stroke="hsl(291.29999999999995, 46.6%, 77.5%)" stroke-width="1.5"></path><path d="M989.3 561.07L989.3 561.07" stroke="hsl(291.29999999999995, 46.6%, 77.5%)" stroke-width="1.5"></path><path d="M989.3 561.07L990.1 640.5" stroke="hsl(291.29999999999995, 46.6%, 77.5%)" stroke-width="1.5"></path><path d="M989.3 561.07L1113.42 524.36" stroke="hsl(291.29999999999995, 46.6%, 77.5%)" stroke-width="1.5"></path><path d="M989.3 561.07L986.97 373.42" stroke="hsl(291.29999999999995, 46.6%, 77.5%)" stroke-width="1.5"></path><path d="M990.1 640.5L990.1 640.5" stroke="hsl(291.29999999999995, 46.6%, 77.5%)" stroke-width="1.5"></path><path d="M990.1 640.5L1113.42 524.36" stroke="hsl(291.29999999999995, 46.6%, 77.5%)" stroke-width="1.5"></path><path d="M1155.25 -110.09L1155.25 -110.09" stroke="hsl(291.29999999999995, 46.6%, 77.5%)" stroke-width="1.5"></path><path d="M1155.25 -110.09L1298.09 -44.76" stroke="hsl(291.29999999999995, 46.6%, 77.5%)" stroke-width="1.5"></path><path d="M1155.25 -110.09L1151 92.95" stroke="hsl(291.29999999999995, 46.6%, 77.5%)" stroke-width="1.5"></path><path d="M1155.25 -110.09L1418.51 74.6" stroke="hsl(291.29999999999995, 46.6%, 77.5%)" stroke-width="1.5"></path><path d="M1151 92.95L1151 92.95" stroke="hsl(291.29999999999995, 46.6%, 77.5%)" stroke-width="1.5"></path><path d="M1151 92.95L1095.93 207.27" stroke="hsl(291.29999999999995, 46.6%, 77.5%)" stroke-width="1.5"></path><path d="M1151 92.95L1298.09 -44.76" stroke="hsl(291.29999999999995, 46.6%, 77.5%)" stroke-width="1.5"></path><path d="M1095.93 207.27L1095.93 207.27" stroke="hsl(291.29999999999995, 46.6%, 77.5%)" stroke-width="1.5"></path><path d="M1095.93 207.27L1108.06 356.25" stroke="hsl(291.29999999999995, 46.6%, 77.5%)" stroke-width="1.5"></path><path d="M1095.93 207.27L986.97 373.42" stroke="hsl(291.29999999999995, 46.6%, 77.5%)" stroke-width="1.5"></path><path d="M1108.06 356.25L1108.06 356.25" stroke="hsl(291.29999999999995, 46.6%, 77.5%)" stroke-width="1.5"></path><path d="M1108.06 356.25L1113.42 524.36" stroke="hsl(291.29999999999995, 46.6%, 77.5%)" stroke-width="1.5"></path><path d="M1113.42 524.36L1113.42 524.36" stroke="hsl(291.29999999999995, 46.6%, 77.5%)" stroke-width="1.5"></path><path d="M1298.09 -44.76L1298.09 -44.76" stroke="hsl(291.29999999999995, 46.6%, 77.5%)" stroke-width="1.5"></path><path d="M1298.09 -44.76L1418.51 74.6" stroke="hsl(291.29999999999995, 46.6%, 77.5%)" stroke-width="1.5"></path><path d="M1298.09 -44.76L1304.71 218.17" stroke="hsl(291.29999999999995, 46.6%, 77.5%)" stroke-width="1.5"></path><path d="M1298.09 -44.76L1565.13 -51.91" stroke="hsl(291.29999999999995, 46.6%, 77.5%)" stroke-width="1.5"></path><path d="M1302.77 652.33L1302.77 652.33" stroke="hsl(291.29999999999995, 46.6%, 77.5%)" stroke-width="1.5"></path><path d="M1302.77 652.33L1429.17 542.48" stroke="hsl(291.29999999999995, 46.6%, 77.5%)" stroke-width="1.5"></path><path d="M1302.77 652.33L1113.42 524.36" stroke="hsl(291.29999999999995, 46.6%, 77.5%)" stroke-width="1.5"></path><path d="M1302.77 652.33L1304.83 376.13" stroke="hsl(291.29999999999995, 46.6%, 77.5%)" stroke-width="1.5"></path><path d="M1302.77 652.33L1581.34 647.35" stroke="hsl(291.29999999999995, 46.6%, 77.5%)" stroke-width="1.5"></path><path d="M1418.51 74.6L1418.51 74.6" stroke="hsl(291.29999999999995, 46.6%, 77.5%)" stroke-width="1.5"></path><path d="M1418.51 74.6L1559.88 37.55" stroke="hsl(291.29999999999995, 46.6%, 77.5%)" stroke-width="1.5"></path><path d="M1418.51 74.6L1433.45 220.94" stroke="hsl(291.29999999999995, 46.6%, 77.5%)" stroke-width="1.5"></path><path d="M1433.45 220.94L1433.45 220.94" stroke="hsl(291.29999999999995, 46.6%, 77.5%)" stroke-width="1.5"></path><path d="M1433.45 220.94L1450.75 367.8" stroke="hsl(291.29999999999995, 46.6%, 77.5%)" stroke-width="1.5"></path><path d="M1433.45 220.94L1601.41 206.71" stroke="hsl(291.29999999999995, 46.6%, 77.5%)" stroke-width="1.5"></path><path d="M1433.45 220.94L1605.09 341.34" stroke="hsl(291.29999999999995, 46.6%, 77.5%)" stroke-width="1.5"></path><path d="M1450.75 367.8L1450.75 367.8" stroke="hsl(291.29999999999995, 46.6%, 77.5%)" stroke-width="1.5"></path><path d="M1450.75 367.8L1605.09 341.34" stroke="hsl(291.29999999999995, 46.6%, 77.5%)" stroke-width="1.5"></path><path d="M1450.75 367.8L1429.17 542.48" stroke="hsl(291.29999999999995, 46.6%, 77.5%)" stroke-width="1.5"></path><path d="M1429.17 542.48L1429.17 542.48" stroke="hsl(291.29999999999995, 46.6%, 77.5%)" stroke-width="1.5"></path><path d="M1429.17 542.48L1581.34 647.35" stroke="hsl(291.29999999999995, 46.6%, 77.5%)" stroke-width="1.5"></path><path d="M1565.13 -51.91L1565.13 -51.91" stroke="hsl(291.29999999999995, 46.6%, 77.5%)" stroke-width="1.5"></path><path d="M1565.13 -51.91L1559.88 37.55" stroke="hsl(291.29999999999995, 46.6%, 77.5%)" stroke-width="1.5"></path><path d="M1565.13 -51.91L1418.51 74.6" stroke="hsl(291.29999999999995, 46.6%, 77.5%)" stroke-width="1.5"></path><path d="M1565.13 -51.91L1601.41 206.71" stroke="hsl(291.29999999999995, 46.6%, 77.5%)" stroke-width="1.5"></path><path d="M1559.88 37.55L1559.88 37.55" stroke="hsl(291.29999999999995, 46.6%, 77.5%)" stroke-width="1.5"></path><path d="M1559.88 37.55L1601.41 206.71" stroke="hsl(291.29999999999995, 46.6%, 77.5%)" stroke-width="1.5"></path><path d="M1559.88 37.55L1433.45 220.94" stroke="hsl(291.29999999999995, 46.6%, 77.5%)" stroke-width="1.5"></path><path d="M1601.41 206.71L1601.41 206.71" stroke="hsl(291.29999999999995, 46.6%, 77.5%)" stroke-width="1.5"></path><path d="M1601.41 206.71L1605.09 341.34" stroke="hsl(291.29999999999995, 46.6%, 77.5%)" stroke-width="1.5"></path><path d="M1601.41 206.71L1450.75 367.8" stroke="hsl(291.29999999999995, 46.6%, 77.5%)" stroke-width="1.5"></path><path d="M1605.09 341.34L1605.09 341.34" stroke="hsl(291.29999999999995, 46.6%, 77.5%)" stroke-width="1.5"></path><path d="M1581.34 647.35L1581.34 647.35" stroke="hsl(291.29999999999995, 46.6%, 77.5%)" stroke-width="1.5"></path><path d="M1581.34 647.35L1605.09 341.34" stroke="hsl(291.29999999999995, 46.6%, 77.5%)" stroke-width="1.5"></path><path d="M1581.34 647.35L1450.75 367.8" stroke="hsl(291.29999999999995, 46.6%, 77.5%)" stroke-width="1.5"></path><circle r="25" cx="-73.98" cy="641.02" fill="url(#SvgjsRadialGradient1009)"></circle><circle r="25" cx="95.09" cy="521.12" fill="url(#SvgjsRadialGradient1009)"></circle><circle r="25" cx="557.89" cy="511.32" fill="url(#SvgjsRadialGradient1009)"></circle><circle r="25" cx="805.74" cy="664.73" fill="url(#SvgjsRadialGradient1009)"></circle><circle r="25" cx="986.97" cy="373.42" fill="url(#SvgjsRadialGradient1009)"></circle><circle r="25" cx="1304.71" cy="218.17" fill="url(#SvgjsRadialGradient1009)"></circle><circle r="25" cx="1304.83" cy="376.13" fill="url(#SvgjsRadialGradient1009)"></circle><circle r="25" cx="1404.15" cy="-109.62" fill="url(#SvgjsRadialGradient1009)"></circle><circle r="5" cx="-104.75" cy="523.5" fill="#ddb4e4"></circle><circle r="5" cx="92" cy="680.48" fill="#ddb4e4"></circle><circle r="5" cx="202.74" cy="505.08" fill="#ddb4e4"></circle><circle r="5" cx="214.63" cy="683.28" fill="#ddb4e4"></circle><circle r="5" cx="378.14" cy="554.37" fill="#ddb4e4"></circle><circle r="5" cx="410.02" cy="650.91" fill="#ddb4e4"></circle><circle r="5" cx="535.55" cy="402.31" fill="#ddb4e4"></circle><circle r="5" cx="546.28" cy="683.07" fill="#ddb4e4"></circle><circle r="5" cx="688.75" cy="393.58" fill="#ddb4e4"></circle><circle r="5" cx="680.12" cy="495.54" fill="#ddb4e4"></circle><circle r="5" cx="696.55" cy="701.39" fill="#ddb4e4"></circle><circle r="5" cx="837.32" cy="365.35" fill="#ddb4e4"></circle><circle r="5" cx="819.99" cy="534.29" fill="#ddb4e4"></circle><circle r="5" cx="985.67" cy="242.6" fill="#ddb4e4"></circle><circle r="5" cx="989.3" cy="561.07" fill="#ddb4e4"></circle><circle r="5" cx="990.1" cy="640.5" fill="#ddb4e4"></circle><circle r="5" cx="1155.25" cy="-110.09" fill="#ddb4e4"></circle><circle r="5" cx="1151" cy="92.95" fill="#ddb4e4"></circle><circle r="5" cx="1095.93" cy="207.27" fill="#ddb4e4"></circle><circle r="5" cx="1108.06" cy="356.25" fill="#ddb4e4"></circle><circle r="5" cx="1113.42" cy="524.36" fill="#ddb4e4"></circle><circle r="5" cx="1298.09" cy="-44.76" fill="#ddb4e4"></circle><circle r="5" cx="1302.77" cy="652.33" fill="#ddb4e4"></circle><circle r="5" cx="1418.51" cy="74.6" fill="#ddb4e4"></circle><circle r="5" cx="1433.45" cy="220.94" fill="#ddb4e4"></circle><circle r="5" cx="1450.75" cy="367.8" fill="#ddb4e4"></circle><circle r="5" cx="1429.17" cy="542.48" fill="#ddb4e4"></circle><circle r="5" cx="1565.13" cy="-51.91" fill="#ddb4e4"></circle><circle r="5" cx="1559.88" cy="37.55" fill="#ddb4e4"></circle><circle r="5" cx="1601.41" cy="206.71" fill="#ddb4e4"></circle><circle r="5" cx="1605.09" cy="341.34" fill="#ddb4e4"></circle><circle r="5" cx="1581.34" cy="647.35" fill="#ddb4e4"></circle></g><defs><mask id="SvgjsMask1008"><rect width="1440" height="560" fill="#ffffff"></rect></mask><radialGradient id="SvgjsRadialGradient1009"><stop stop-color="#ffffff" offset="0.1"></stop><stop stop-color="rgba(186, 104, 200, 1)" offset="0.2"></stop><stop stop-color="rgba(186, 104, 200, 0)" offset="1"></stop></radialGradient></defs></svg>